<mxfile host="app.diagrams.net" modified="2024-01-29T02:17:18.231Z" agent="Mozilla/5.0 (Windows NT 10.0; Win64; x64) AppleWebKit/537.36 (KHTML, like Gecko) Chrome/120.0.0.0 Safari/537.36" version="23.0.2" etag="sfv5C8B7XkAQpuXFRFL4" type="github">
  <diagram name="페이지-1" id="VqliikS8bwRq5gIXhK4Z">
    <mxGraphModel>
      <root>
        <mxCell id="0" />
        <mxCell id="1" parent="0" />
      </root>
    </mxGraphModel>
  </diagram>
</mxfile>
